<svg width="500" height="207" viewBox="0 0 500 207" fill="none" xmlns="http://www.w3.org/2000/svg">
<g filter="url(#filter0_dd_167_979)">
<path d="M496 190.217C496 190.217 441.125 205.647 415.402 193.646C389.68 181.645 369.101 152.501 321.086 152.501C273.07 152.501 250.777 195.36 192.472 198.789C134.168 202.218 121.493 162.809 72.4332 152.501C23.3738 142.192 5.55417 157.644 5.55417 152.501C5.55417 147.357 2.05731 64.9926 5.55417 3.34787C5.55417 3.34787 52.0187 -1.93484 81.0074 3.34787C121.685 10.7607 136.065 42.3792 177.039 47.9222C235.394 55.8165 273.07 -1.79532 321.086 3.34787C369.101 8.49106 391.394 42.779 425.691 47.9222C459.988 53.0654 496 35.9214 496 35.9214V190.217Z" fill="#FFEDA9"/>
</g>
<path d="M155.423 84.6406H166.04V97.625L177.173 84.6406H191.282L178.767 97.6016L191.845 119H178.767L171.524 104.867L166.04 110.609V119H155.423V84.6406ZM193.616 84.6406H203.178V119H193.616V84.6406ZM208.183 84.6406H217.723V91.1328H208.183V84.6406ZM208.183 94.1094H217.723V119H208.183V94.1094ZM222.376 84.6406H232.126V102.359L239.251 94.1094H250.993L242.064 102.828L251.509 119H240.751L235.712 109.016L232.126 112.531V119H222.376V84.6406ZM267.543 84.6406H277.082V97.2969C278.379 95.9531 279.668 94.9922 280.949 94.4141C282.231 93.8359 283.746 93.5469 285.496 93.5469C288.09 93.5469 290.129 94.3359 291.613 95.9141C293.113 97.4922 293.863 99.9141 293.863 103.18V119H284.277V105.312C284.277 103.75 283.988 102.648 283.41 102.008C282.832 101.352 282.02 101.023 280.973 101.023C279.817 101.023 278.879 101.461 278.16 102.336C277.442 103.211 277.082 104.781 277.082 107.047V119H267.543V84.6406ZM325.752 108.922H306.627C306.798 110.453 307.212 111.594 307.869 112.344C308.791 113.422 309.994 113.961 311.478 113.961C312.416 113.961 313.306 113.727 314.15 113.258C314.666 112.961 315.22 112.438 315.814 111.688L325.212 112.555C323.775 115.055 322.041 116.852 320.009 117.945C317.978 119.023 315.064 119.562 311.267 119.562C307.97 119.562 305.377 119.102 303.486 118.18C301.595 117.242 300.025 115.766 298.775 113.75C297.541 111.719 296.923 109.336 296.923 106.602C296.923 102.711 298.166 99.5625 300.65 97.1562C303.15 94.75 306.595 93.5469 310.986 93.5469C314.548 93.5469 317.361 94.0859 319.423 95.1641C321.486 96.2422 323.056 97.8047 324.134 99.8516C325.212 101.898 325.752 104.562 325.752 107.844V108.922ZM316.048 104.352C315.861 102.508 315.361 101.188 314.548 100.391C313.752 99.5938 312.697 99.1953 311.384 99.1953C309.869 99.1953 308.658 99.7969 307.752 101C307.173 101.75 306.806 102.867 306.65 104.352H316.048ZM328.788 94.1094H337.718V98.1875C338.577 96.4219 339.46 95.2109 340.366 94.5547C341.288 93.8828 342.421 93.5469 343.765 93.5469C345.171 93.5469 346.71 93.9844 348.382 94.8594L345.429 101.656C344.304 101.188 343.413 100.953 342.757 100.953C341.507 100.953 340.538 101.469 339.851 102.5C338.866 103.953 338.374 106.672 338.374 110.656V119H328.788V94.1094Z" fill="black"/>
<defs>
<filter id="filter0_dd_167_979" x="0" y="0" width="500" height="207" filterUnits="userSpaceOnUse" color-interpolation-filters="sRGB">
<feFlood flood-opacity="0" result="BackgroundImageFix"/>
<feColorMatrix in="SourceAlpha" type="matrix" values="0 0 0 0 0 0 0 0 0 0 0 0 0 0 0 0 0 0 127 0" result="hardAlpha"/>
<feOffset dy="3"/>
<feGaussianBlur stdDeviation="2"/>
<feComposite in2="hardAlpha" operator="out"/>
<feColorMatrix type="matrix" values="0 0 0 0 0.917255 0 0 0 0 0.809087 0 0 0 0 0.556696 0 0 0 1 0"/>
<feBlend mode="normal" in2="BackgroundImageFix" result="effect1_dropShadow_167_979"/>
<feColorMatrix in="SourceAlpha" type="matrix" values="0 0 0 0 0 0 0 0 0 0 0 0 0 0 0 0 0 0 127 0" result="hardAlpha"/>
<feOffset dy="4"/>
<feGaussianBlur stdDeviation="2"/>
<feComposite in2="hardAlpha" operator="out"/>
<feColorMatrix type="matrix" values="0 0 0 0 0 0 0 0 0 0 0 0 0 0 0 0 0 0 0.25 0"/>
<feBlend mode="normal" in2="effect1_dropShadow_167_979" result="effect2_dropShadow_167_979"/>
<feBlend mode="normal" in="SourceGraphic" in2="effect2_dropShadow_167_979" result="shape"/>
</filter>
</defs>
</svg>
