<svg width="173" height="173" viewBox="0 0 173 173" fill="none" xmlns="http://www.w3.org/2000/svg">
<circle cx="86.5" cy="86.5" r="84" fill="black" stroke="#FEF3C7" stroke-width="5"/>
<mask id="path-2-inside-1_139_642" fill="white">
<circle cx="83.5" cy="89.5" r="46.5"/>
</mask>
<circle cx="83.5" cy="89.5" r="46.5" fill="black"/>
<path d="M130 89.5C129.835 94.377 128.917 99.1896 127.284 103.728C120.899 122.076 102.313 134.737 83.5 134.125C59.7385 134.231 38.9504 112.894 39.5 89.5C38.9504 66.106 59.7385 44.7687 83.5 44.875C102.313 44.2628 120.899 56.9241 127.284 75.2724C128.917 79.8104 129.835 84.623 130 89.5C130.169 84.6235 129.566 79.7054 128.187 74.979C122.897 55.881 103.956 41.157 83.5 41.125C57.724 40.0268 33.8451 63.3565 34.5 89.5C33.8451 115.643 57.724 138.973 83.5 137.875C103.956 137.843 122.897 123.119 128.187 104.021C129.566 99.2945 130.169 94.3765 130 89.5Z" fill="black" mask="url(#path-2-inside-1_139_642)"/>
<g filter="url(#filter0_d_139_642)">
<path d="M54.8086 94H110.809V123C110.809 137.359 99.168 149 84.8086 149H80.8086C66.4492 149 54.8086 137.359 54.8086 123V94Z" fill="#9F9E9D"/>
</g>
<path d="M92 101H75L81.375 42.6633L82.4375 28H84.5392L86.1562 42.6633L92 101Z" fill="#9F9E9D"/>
<path d="M97.7379 65.9037C96.2214 65.9037 95.3349 65.9772 90.2031 65.9495C85.4221 65.9237 76.2254 65.5701 71.3884 65.4216C66.5515 65.273 66.3541 65.2625 65.6138 65.5287C63.5681 66.2642 61.4676 67.3818 60.1386 68.1596C58.5808 69.0712 56.5802 69.552 54.4892 71.6352C52.0303 74.0849 51.8077 76.6643 51.7656 78.9699C51.7434 80.1878 53.4576 80.7087 54.9301 81.2019C56.9149 81.8666 57.9724 81.7911 59.4611 82.1814C62.7978 83.0564 64.503 82.7128 65.7098 82.5039C67.1394 82.2565 68.2457 81.8595 71.2174 81.4856C73.9424 81.1428 79.1277 80.4093 85.6901 79.7875C92.2525 79.1656 100.032 78.6573 104.304 78.4177C109.099 78.1486 110.213 78.4006 111.197 78.6538C112.54 78.9996 114.241 81.036 115.091 82.3088C115.619 83.1009 115.114 84.394 114.605 85.3625C113.943 86.6227 113.007 87.0001 110.523 87.9841C109.321 88.4604 107.348 88.892 103.51 89.2449C99.6716 89.5978 93.9924 89.761 88.6691 89.5376C83.3458 89.3143 78.5503 88.6994 75.3735 88.397C72.1967 88.0947 70.7838 88.1235 67.9745 88.7287C65.1651 89.334 61.0021 90.5148 58.5086 91.1861C56.015 91.8574 55.317 91.9834 55.0205 92.1222C54.724 92.2611 54.8502 92.4091 54.9966 92.5907" stroke="url(#paint0_linear_139_642)" stroke-width="5" stroke-linecap="round"/>
<path d="M61.3086 90.5C61.2962 90.5 56.8086 91 54.8086 92.3993C52.8086 93.7987 53.0132 93.6645 50.5595 95.9477C49.3143 97.1064 48.9107 98.475 48.1115 99.5408C47.3124 100.607 46.8577 101.4 46.3533 102.635C45.8489 103.869 45.3085 105.521 44.8953 107.157C44.0926 110.334 43.9346 112.36 44.0211 113.093C44.2339 114.897 46.1063 116.112 47.2149 116.785C48.2322 117.403 49.6749 117.719 52.0228 117.943C53.6356 118.097 56.1258 118.024 57.6676 117.971" stroke="url(#paint1_linear_139_642)" stroke-width="5" stroke-linecap="round"/>
<path d="M110.809 95.5L91.8086 101L99.3086 42.6633L100.559 28H103.031L104.934 42.6633L110.809 95.5Z" fill="#9F9E9D"/>
<path d="M75 97H55L62.5 41.8599L63.75 28H66.2226L68.125 41.8599L75 97Z" fill="#9F9E9D"/>
<path d="M72.5691 65.4275C67.3086 65.4275 61.3086 66.9275 56.8086 70" stroke="#FEEB92" stroke-width="5" stroke-linecap="round"/>
<path d="M74.8086 88.5C69.5481 88.5 59.8086 88.9275 55.3086 92" stroke="#FFF3C7" stroke-width="5" stroke-linecap="round"/>
<path d="M110.309 88C106.309 89.5 95.3086 89 89.8086 89.5" stroke="#FFF3C7" stroke-width="5" stroke-linecap="round"/>
<path d="M167.5 82.5C131 88.5 112.309 87 115.309 100C117.039 107.5 130.809 97.0686 130.809 114.5C130.809 124.5 107.309 129.5 100.809 129.5C87.0249 129.5 70.8086 118 56.8086 118" stroke="url(#paint2_linear_139_642)" stroke-width="5" stroke-linecap="round"/>
<path d="M94.5746 95.886C95.1908 95.886 95.7396 96.1202 96.221 96.5886C96.7024 97.0414 97.0779 97.6738 97.3475 98.4857C97.6171 99.2821 97.7519 100.18 97.7519 101.179V101.484C97.7519 102.483 97.6171 103.389 97.3475 104.201C97.0779 105.013 96.7024 105.653 96.221 106.121C95.7396 106.574 95.1908 106.8 94.5746 106.8H92.1917V112H89V95.886H94.5746ZM92.1917 103.03H93.5059C93.8429 103.03 94.0932 102.889 94.2569 102.608C94.4302 102.327 94.5169 101.944 94.5169 101.46V101.273C94.5169 100.773 94.4302 100.391 94.2569 100.125C94.0932 99.8442 93.8429 99.7037 93.5059 99.7037H92.1917V103.03Z" fill="#FFF3C7"/>
<path d="M105.334 117.293L104.915 115.021H101.435L101.016 117.293H97.7519L101.377 101.179H105.088L108.713 117.293H105.334ZM102.099 111.414H104.251L103.211 105.676H103.153L102.099 111.414Z" fill="#FFF3C7"/>
<path d="M140.168 96.5886V108.58H136.977V96.5886H133.713V92.4664H143.418V96.5886H140.168Z" fill="#FFF3C7"/>
<path d="M153.246 105.114L152.827 102.842H149.346L148.927 105.114H145.663L149.288 89H153L156.625 105.114H153.246ZM150.01 99.2352H152.162L151.123 93.4969H151.065L150.01 99.2352Z" fill="#FFF3C7"/>
<path d="M93.2504 168H77.118C78.6181 152.98 77.9915 152.407 72 144H95C88.3838 154.645 91.7368 160.65 93.2504 168Z" fill="#9F9E9D"/>
<defs>
<filter id="filter0_d_139_642" x="50.8086" y="94" width="64" height="63" filterUnits="userSpaceOnUse" color-interpolation-filters="sRGB">
<feFlood flood-opacity="0" result="BackgroundImageFix"/>
<feColorMatrix in="SourceAlpha" type="matrix" values="0 0 0 0 0 0 0 0 0 0 0 0 0 0 0 0 0 0 127 0" result="hardAlpha"/>
<feOffset dy="4"/>
<feGaussianBlur stdDeviation="2"/>
<feComposite in2="hardAlpha" operator="out"/>
<feColorMatrix type="matrix" values="0 0 0 0 0 0 0 0 0 0 0 0 0 0 0 0 0 0 0.25 0"/>
<feBlend mode="normal" in2="BackgroundImageFix" result="effect1_dropShadow_139_642"/>
<feBlend mode="normal" in="SourceGraphic" in2="effect1_dropShadow_139_642" result="shape"/>
</filter>
<linearGradient id="paint0_linear_139_642" x1="83.5403" y1="65.3174" x2="83.5403" y2="92.5907" gradientUnits="userSpaceOnUse">
<stop stop-color="#FEEB92"/>
<stop offset="1" stop-color="#FFF3C7"/>
</linearGradient>
<linearGradient id="paint1_linear_139_642" x1="52.6543" y1="90.5" x2="52.6543" y2="118.035" gradientUnits="userSpaceOnUse">
<stop stop-color="#FFF3C7"/>
<stop offset="1" stop-color="#FEE792"/>
</linearGradient>
<linearGradient id="paint2_linear_139_642" x1="112.059" y1="86" x2="112.059" y2="129.5" gradientUnits="userSpaceOnUse">
<stop stop-color="#FFF3C7"/>
<stop offset="1" stop-color="#FEE792"/>
</linearGradient>
</defs>
</svg>
