<svg width="85" height="135" viewBox="0 0 85 135" fill="none" xmlns="http://www.w3.org/2000/svg">
<g filter="url(#filter0_d_258_331)">
<path d="M17.3075 66H73.3075V95C73.3075 109.359 61.6669 121 47.3075 121H43.3075C28.9481 121 17.3075 109.359 17.3075 95V66Z" fill="#D9D9D9"/>
</g>
<path d="M54.3075 73H38.3075L44.3075 14.6633L45.3075 0H47.2855L48.8075 14.6633L54.3075 73Z" fill="#D9D9D9"/>
<rect x="37.3075" y="114" width="16" height="21" fill="#D9D9D9"/>
<g filter="url(#filter1_d_258_331)">
<path d="M33.4837 103.57C33.1637 103.57 32.8737 103.48 32.6137 103.3C32.3537 103.13 32.1487 102.905 31.9987 102.625C31.8487 102.335 31.7737 102.025 31.7737 101.695C31.7737 101.075 31.9087 100.47 32.1787 99.88C32.4587 99.29 32.8237 98.73 33.2737 98.2C33.7237 97.67 34.2137 97.185 34.7437 96.745C35.2837 96.295 35.8187 95.91 36.3487 95.59C36.8887 95.27 37.3787 95.02 37.8187 94.84C38.2687 94.66 38.6187 94.57 38.8687 94.57C39.1587 94.57 39.3937 94.635 39.5737 94.765C39.7637 94.885 39.8587 95.075 39.8587 95.335C39.8587 95.415 39.8387 95.48 39.7987 95.53C39.9287 95.56 40.0337 95.635 40.1137 95.755C40.1937 95.875 40.2337 96.055 40.2337 96.295C40.2337 96.395 40.2087 96.655 40.1587 97.075C40.1087 97.495 40.0537 98.005 39.9937 98.605C39.9437 99.205 39.9187 99.83 39.9187 100.48C39.9187 100.58 39.9337 100.67 39.9637 100.75C39.9937 100.82 40.0587 100.855 40.1587 100.855C40.5587 100.855 40.9637 100.775 41.3737 100.615C41.7937 100.445 42.1987 100.24 42.5887 100C42.9887 99.75 43.3487 99.505 43.6687 99.265C43.9987 99.015 44.2737 98.81 44.4937 98.65C44.7237 98.48 44.8737 98.395 44.9437 98.395C45.2837 98.395 45.4537 98.565 45.4537 98.905C45.4537 98.995 45.3437 99.185 45.1237 99.475C44.9137 99.755 44.6237 100.08 44.2537 100.45C43.8837 100.81 43.4687 101.17 43.0087 101.53C42.5587 101.88 42.0887 102.17 41.5987 102.4C41.1187 102.63 40.6537 102.745 40.2037 102.745C39.6537 102.745 39.2337 102.615 38.9437 102.355C38.6637 102.095 38.4637 101.745 38.3437 101.305C38.2337 100.855 38.1737 100.35 38.1637 99.79C37.6537 100.52 37.1237 101.17 36.5737 101.74C36.0337 102.3 35.4987 102.745 34.9687 103.075C34.4387 103.405 33.9437 103.57 33.4837 103.57ZM38.7937 96.055C37.8137 96.525 36.9337 97.065 36.1537 97.675C35.3737 98.275 34.7537 98.905 34.2937 99.565C33.8437 100.225 33.6187 100.86 33.6187 101.47C33.6187 101.64 33.6987 101.725 33.8587 101.725C34.0487 101.725 34.2987 101.615 34.6087 101.395C34.9287 101.175 35.2737 100.885 35.6437 100.525C36.0137 100.155 36.3837 99.745 36.7537 99.295C37.1237 98.835 37.4687 98.365 37.7887 97.885C38.1087 97.405 38.3637 96.945 38.5537 96.505C38.6237 96.345 38.7037 96.195 38.7937 96.055ZM45.6392 103.765C45.2092 103.765 44.9042 103.705 44.7242 103.585C44.5542 103.465 44.4692 103.29 44.4692 103.06C44.4692 102.86 44.5392 102.69 44.6792 102.55C44.8192 102.4 45.1292 102.25 45.6092 102.1C46.1692 101.93 46.6992 101.735 47.1992 101.515C47.7092 101.285 48.1242 101.035 48.4442 100.765C48.7742 100.495 48.9392 100.21 48.9392 99.91C48.9392 99.71 48.8692 99.565 48.7292 99.475C48.5992 99.385 48.4442 99.34 48.2642 99.34C48.1142 99.34 47.8942 99.365 47.6042 99.415C47.3242 99.455 47.0142 99.51 46.6742 99.58C46.3342 99.64 46.0042 99.695 45.6842 99.745C45.3742 99.785 45.1092 99.805 44.8892 99.805C44.3692 99.805 43.9842 99.69 43.7342 99.46C43.4842 99.22 43.3592 98.915 43.3592 98.545C43.3592 98.345 43.4642 98.07 43.6742 97.72C43.8842 97.37 44.1642 96.985 44.5142 96.565C44.8642 96.145 45.2542 95.725 45.6842 95.305C46.1142 94.885 46.5492 94.5 46.9892 94.15C47.4392 93.79 47.8642 93.505 48.2642 93.295C48.6642 93.075 49.0042 92.965 49.2842 92.965C49.6042 92.965 49.8592 93.065 50.0492 93.265C50.2492 93.465 50.3492 93.735 50.3492 94.075C50.3492 94.235 50.3342 94.41 50.3042 94.6C50.2742 94.78 50.1992 94.945 50.0792 95.095C49.9592 95.235 49.7742 95.335 49.5242 95.395C49.2742 95.455 48.9342 95.445 48.5042 95.365C48.1642 95.615 47.8092 95.89 47.4392 96.19C47.0792 96.48 46.7392 96.785 46.4192 97.105C46.0992 97.415 45.8342 97.72 45.6242 98.02C45.9942 97.9 46.4142 97.805 46.8842 97.735C47.3542 97.655 47.8292 97.615 48.3092 97.615C48.8892 97.615 49.3592 97.72 49.7192 97.93C50.0892 98.13 50.3592 98.4 50.5292 98.74C50.7092 99.08 50.7992 99.455 50.7992 99.865C50.7992 100.325 50.6492 100.785 50.3492 101.245C50.0492 101.705 49.6492 102.125 49.1492 102.505C48.6492 102.885 48.0942 103.19 47.4842 103.42C46.8742 103.65 46.2592 103.765 45.6392 103.765ZM62.9469 95.44C62.9469 95.56 62.9069 95.665 62.8269 95.755C62.7469 95.845 62.6469 95.915 62.5269 95.965C62.3569 96.035 62.0619 96.125 61.6419 96.235C61.2219 96.345 60.7119 96.47 60.1119 96.61C59.5219 96.75 58.8869 96.895 58.2069 97.045C57.5269 97.185 56.8469 97.32 56.1669 97.45C55.9069 98.41 55.6419 99.4 55.3719 100.42C55.1019 101.43 54.8319 102.425 54.5619 103.405C54.4619 103.755 54.3419 104.02 54.2019 104.2C54.0619 104.39 53.8219 104.485 53.4819 104.485C53.1119 104.485 52.8619 104.365 52.7319 104.125C52.6119 103.895 52.5969 103.58 52.6869 103.18C52.9469 102.09 53.1869 101.075 53.4069 100.135C53.6369 99.195 53.8219 98.435 53.9619 97.855C53.3619 97.955 52.8369 98.035 52.3869 98.095C51.9369 98.145 51.6169 98.165 51.4269 98.155C51.2169 98.135 51.0419 98.05 50.9019 97.9C50.7619 97.75 50.6969 97.565 50.7069 97.345C50.7269 97.145 50.8169 96.975 50.9769 96.835C51.1369 96.685 51.3269 96.595 51.5469 96.565C51.8569 96.535 52.2569 96.49 52.7469 96.43C53.2369 96.37 53.7769 96.3 54.3669 96.22C54.4969 95.71 54.6469 95.185 54.8169 94.645C54.9869 94.095 55.1619 93.57 55.3419 93.07C55.5319 92.56 55.7119 92.115 55.8819 91.735C56.0519 91.355 56.2069 91.08 56.3469 90.91C56.4569 90.78 56.5919 90.68 56.7519 90.61C56.9219 90.54 57.0869 90.505 57.2469 90.505C57.4569 90.505 57.6269 90.58 57.7569 90.73C57.8869 90.88 57.9519 91.055 57.9519 91.255C57.9519 91.335 57.9469 91.42 57.9369 91.51C57.9269 91.59 57.9069 91.67 57.8769 91.75C57.6869 92.25 57.4819 92.855 57.2619 93.565C57.0519 94.275 56.8319 95.055 56.6019 95.905C57.3519 95.795 58.0869 95.685 58.8069 95.575C59.5369 95.455 60.1969 95.345 60.7869 95.245C61.3869 95.135 61.8669 95.04 62.2269 94.96C62.4269 94.89 62.5969 94.905 62.7369 95.005C62.8769 95.095 62.9469 95.24 62.9469 95.44ZM61.3158 103.57C60.9958 103.57 60.7058 103.48 60.4458 103.3C60.1858 103.13 59.9808 102.905 59.8308 102.625C59.6808 102.335 59.6058 102.025 59.6058 101.695C59.6058 101.075 59.7408 100.47 60.0108 99.88C60.2908 99.29 60.6558 98.73 61.1058 98.2C61.5558 97.67 62.0458 97.185 62.5758 96.745C63.1158 96.295 63.6508 95.91 64.1808 95.59C64.7208 95.27 65.2108 95.02 65.6508 94.84C66.1008 94.66 66.4508 94.57 66.7008 94.57C66.9908 94.57 67.2258 94.635 67.4058 94.765C67.5958 94.885 67.6908 95.075 67.6908 95.335C67.6908 95.415 67.6708 95.48 67.6308 95.53C67.7608 95.56 67.8658 95.635 67.9458 95.755C68.0258 95.875 68.0658 96.055 68.0658 96.295C68.0658 96.395 68.0408 96.655 67.9908 97.075C67.9408 97.495 67.8858 98.005 67.8258 98.605C67.7758 99.205 67.7508 99.83 67.7508 100.48C67.7508 100.58 67.7658 100.67 67.7958 100.75C67.8258 100.82 67.8908 100.855 67.9908 100.855C68.3908 100.855 68.7958 100.775 69.2058 100.615C69.6258 100.445 70.0308 100.24 70.4208 100C70.8208 99.75 71.1808 99.505 71.5008 99.265C71.8308 99.015 72.1058 98.81 72.3258 98.65C72.5558 98.48 72.7058 98.395 72.7758 98.395C73.1158 98.395 73.2858 98.565 73.2858 98.905C73.2858 98.995 73.1758 99.185 72.9558 99.475C72.7458 99.755 72.4558 100.08 72.0858 100.45C71.7158 100.81 71.3008 101.17 70.8408 101.53C70.3908 101.88 69.9208 102.17 69.4308 102.4C68.9508 102.63 68.4858 102.745 68.0358 102.745C67.4858 102.745 67.0658 102.615 66.7758 102.355C66.4958 102.095 66.2958 101.745 66.1758 101.305C66.0658 100.855 66.0058 100.35 65.9958 99.79C65.4858 100.52 64.9558 101.17 64.4058 101.74C63.8658 102.3 63.3308 102.745 62.8008 103.075C62.2708 103.405 61.7758 103.57 61.3158 103.57ZM66.6258 96.055C65.6458 96.525 64.7658 97.065 63.9858 97.675C63.2058 98.275 62.5858 98.905 62.1258 99.565C61.6758 100.225 61.4508 100.86 61.4508 101.47C61.4508 101.64 61.5308 101.725 61.6908 101.725C61.8808 101.725 62.1308 101.615 62.4408 101.395C62.7608 101.175 63.1058 100.885 63.4758 100.525C63.8458 100.155 64.2158 99.745 64.5858 99.295C64.9558 98.835 65.3008 98.365 65.6208 97.885C65.9408 97.405 66.1958 96.945 66.3858 96.505C66.4558 96.345 66.5358 96.195 66.6258 96.055Z" fill="#FFF3C7"/>
</g>
<g filter="url(#filter2_d_258_331)">
<path d="M60.2368 37.9037C58.7203 37.9037 57.8338 37.9772 52.702 37.9495C47.921 37.9237 38.7243 37.5702 33.8873 37.4216C29.0504 37.273 28.853 37.2625 28.1127 37.5287C26.067 38.2642 23.9665 39.3818 22.6375 40.1596C21.0797 41.0712 19.0791 41.552 16.9881 43.6352C14.5292 46.0849 14.3066 48.6644 14.2645 50.9699C14.2423 52.1878 15.9565 52.7087 17.429 53.2019C19.4138 53.8667 20.4713 53.7911 21.96 54.1814C25.2967 55.0564 27.0019 54.7128 28.2087 54.5039C29.6383 54.2565 30.7446 53.8595 33.7163 53.4857C36.4413 53.1428 41.6266 52.4093 48.189 51.7875C54.7514 51.1656 62.5311 50.6573 66.8027 50.4177C71.5981 50.1486 72.7121 50.4007 73.6956 50.6538C75.039 50.9996 76.7399 53.036 77.5896 54.3088C78.1184 55.1009 77.6128 56.394 77.1041 57.3625C76.4422 58.6227 75.5059 59.0001 73.022 59.9841C71.8198 60.4604 69.8474 60.892 66.0089 61.2449C62.1705 61.5978 56.4913 61.761 51.168 61.5376C45.8447 61.3143 41.0492 60.6994 37.8724 60.397C34.6956 60.0947 33.2827 60.1235 30.4734 60.7287C27.664 61.334 23.501 62.5148 21.0075 63.1861C18.5139 63.8574 17.8159 63.9834 17.5194 64.1223C17.2229 64.2611 17.3491 64.4091 17.4955 64.5907" stroke="#FFF3C7" stroke-width="5" stroke-linecap="round"/>
</g>
<g filter="url(#filter3_d_258_331)">
<path d="M23.8075 62.5C23.7951 62.5 19.3075 63 17.3075 64.3993C15.3075 65.7987 15.5121 65.6645 13.0584 67.9477C11.8132 69.1064 11.4096 70.475 10.6104 71.5408C9.81129 72.6067 9.35665 73.4002 8.85224 74.6348C8.34784 75.8694 7.80744 77.521 7.39422 79.1568C6.59147 82.3344 6.43347 84.3596 6.52005 85.0934C6.73281 86.8967 8.60521 88.1116 9.71378 88.7849C10.7311 89.4028 12.1738 89.7192 14.5217 89.9429C16.1345 90.0966 18.6247 90.024 20.1665 89.9706C23.8968 89.8414 26.7914 88.8624 27.7888 88.6051C29.4666 88.1725 32.1955 88.118 33.8398 87.7247C35.7625 87.2649 36.238 86.2299 36.7181 85.3635C37.4942 83.963 37.2506 81.8218 37.0342 80.0268C36.7748 77.8745 34.6524 76.4327 33.8012 75.841C32.7901 75.1381 30.6597 75.372 29.5175 75.661C28.4453 75.9323 27.9499 77.0885 27.4373 78.1766C27.2564 78.5606 27.1475 79.138 27.0494 81.3635C26.9513 83.5891 26.9134 87.464 26.9299 89.6505C26.9563 93.1441 27.038 94.4656 26.9988 96.5446C26.9854 98.3767 26.9854 101.787 26.9934 103.663C27.0014 105.54 27.0173 105.779 27.0545 106.093" stroke="#FFF3C7" stroke-width="5" stroke-linecap="round" shape-rendering="crispEdges"/>
</g>
<path d="M73.3075 67.5L54.3075 73L61.8075 14.6633L63.0575 0H65.5301L67.4325 14.6633L73.3075 67.5Z" fill="#D9D9D9"/>
<path d="M37.3075 73H17.3075L24.8075 14.6633L26.0575 0H28.5301L30.4325 14.6633L37.3075 73Z" fill="#D9D9D9"/>
<g filter="url(#filter4_d_258_331)">
<path d="M35.068 37.4275C29.8075 37.4275 23.8075 38.9275 19.3075 42" stroke="#FFF3C7" stroke-width="5" stroke-linecap="round"/>
</g>
<g filter="url(#filter5_d_258_331)">
<path d="M37.3075 60.5C32.047 60.5 22.3075 60.9275 17.8075 64" stroke="#FFF3C7" stroke-width="5" stroke-linecap="round"/>
</g>
<g filter="url(#filter6_d_258_331)">
<path d="M72.8075 60C68.8075 61.5 57.8075 61 52.3075 61.5" stroke="#FFF3C7" stroke-width="5" stroke-linecap="round"/>
</g>
<defs>
<filter id="filter0_d_258_331" x="13.3075" y="66" width="64" height="63" filterUnits="userSpaceOnUse" color-interpolation-filters="sRGB">
<feFlood flood-opacity="0" result="BackgroundImageFix"/>
<feColorMatrix in="SourceAlpha" type="matrix" values="0 0 0 0 0 0 0 0 0 0 0 0 0 0 0 0 0 0 127 0" result="hardAlpha"/>
<feOffset dy="4"/>
<feGaussianBlur stdDeviation="2"/>
<feComposite in2="hardAlpha" operator="out"/>
<feColorMatrix type="matrix" values="0 0 0 0 0 0 0 0 0 0 0 0 0 0 0 0 0 0 0.25 0"/>
<feBlend mode="normal" in2="BackgroundImageFix" result="effect1_dropShadow_258_331"/>
<feBlend mode="normal" in="SourceGraphic" in2="effect1_dropShadow_258_331" result="shape"/>
</filter>
<filter id="filter1_d_258_331" x="27.7737" y="90.505" width="49.5121" height="21.98" filterUnits="userSpaceOnUse" color-interpolation-filters="sRGB">
<feFlood flood-opacity="0" result="BackgroundImageFix"/>
<feColorMatrix in="SourceAlpha" type="matrix" values="0 0 0 0 0 0 0 0 0 0 0 0 0 0 0 0 0 0 127 0" result="hardAlpha"/>
<feOffset dy="4"/>
<feGaussianBlur stdDeviation="2"/>
<feComposite in2="hardAlpha" operator="out"/>
<feColorMatrix type="matrix" values="0 0 0 0 0 0 0 0 0 0 0 0 0 0 0 0 0 0 0.25 0"/>
<feBlend mode="normal" in2="BackgroundImageFix" result="effect1_dropShadow_258_331"/>
<feBlend mode="normal" in="SourceGraphic" in2="effect1_dropShadow_258_331" result="shape"/>
</filter>
<filter id="filter2_d_258_331" x="7.76422" y="34.8175" width="76.5494" height="40.2733" filterUnits="userSpaceOnUse" color-interpolation-filters="sRGB">
<feFlood flood-opacity="0" result="BackgroundImageFix"/>
<feColorMatrix in="SourceAlpha" type="matrix" values="0 0 0 0 0 0 0 0 0 0 0 0 0 0 0 0 0 0 127 0" result="hardAlpha"/>
<feOffset dy="4"/>
<feGaussianBlur stdDeviation="2"/>
<feComposite in2="hardAlpha" operator="out"/>
<feColorMatrix type="matrix" values="0 0 0 0 0 0 0 0 0 0 0 0 0 0 0 0 0 0 0.25 0"/>
<feBlend mode="normal" in2="BackgroundImageFix" result="effect1_dropShadow_258_331"/>
<feBlend mode="normal" in="SourceGraphic" in2="effect1_dropShadow_258_331" result="shape"/>
</filter>
<filter id="filter3_d_258_331" x="0" y="60" width="43.7488" height="56.5935" filterUnits="userSpaceOnUse" color-interpolation-filters="sRGB">
<feFlood flood-opacity="0" result="BackgroundImageFix"/>
<feColorMatrix in="SourceAlpha" type="matrix" values="0 0 0 0 0 0 0 0 0 0 0 0 0 0 0 0 0 0 127 0" result="hardAlpha"/>
<feOffset dy="4"/>
<feGaussianBlur stdDeviation="2"/>
<feComposite in2="hardAlpha" operator="out"/>
<feColorMatrix type="matrix" values="0 0 0 0 0 0 0 0 0 0 0 0 0 0 0 0 0 0 0.25 0"/>
<feBlend mode="normal" in2="BackgroundImageFix" result="effect1_dropShadow_258_331"/>
<feBlend mode="normal" in="SourceGraphic" in2="effect1_dropShadow_258_331" result="shape"/>
</filter>
<filter id="filter4_d_258_331" x="12.8073" y="34.9275" width="28.7608" height="17.5727" filterUnits="userSpaceOnUse" color-interpolation-filters="sRGB">
<feFlood flood-opacity="0" result="BackgroundImageFix"/>
<feColorMatrix in="SourceAlpha" type="matrix" values="0 0 0 0 0 0 0 0 0 0 0 0 0 0 0 0 0 0 127 0" result="hardAlpha"/>
<feOffset dy="4"/>
<feGaussianBlur stdDeviation="2"/>
<feComposite in2="hardAlpha" operator="out"/>
<feColorMatrix type="matrix" values="0 0 0 0 0 0 0 0 0 0 0 0 0 0 0 0 0 0 0.25 0"/>
<feBlend mode="normal" in2="BackgroundImageFix" result="effect1_dropShadow_258_331"/>
<feBlend mode="normal" in="SourceGraphic" in2="effect1_dropShadow_258_331" result="shape"/>
</filter>
<filter id="filter5_d_258_331" x="11.3073" y="58" width="32.5002" height="16.5002" filterUnits="userSpaceOnUse" color-interpolation-filters="sRGB">
<feFlood flood-opacity="0" result="BackgroundImageFix"/>
<feColorMatrix in="SourceAlpha" type="matrix" values="0 0 0 0 0 0 0 0 0 0 0 0 0 0 0 0 0 0 127 0" result="hardAlpha"/>
<feOffset dy="4"/>
<feGaussianBlur stdDeviation="2"/>
<feComposite in2="hardAlpha" operator="out"/>
<feColorMatrix type="matrix" values="0 0 0 0 0 0 0 0 0 0 0 0 0 0 0 0 0 0 0.25 0"/>
<feBlend mode="normal" in2="BackgroundImageFix" result="effect1_dropShadow_258_331"/>
<feBlend mode="normal" in="SourceGraphic" in2="effect1_dropShadow_258_331" result="shape"/>
</filter>
<filter id="filter6_d_258_331" x="45.8073" y="57.4993" width="33.5008" height="14.5008" filterUnits="userSpaceOnUse" color-interpolation-filters="sRGB">
<feFlood flood-opacity="0" result="BackgroundImageFix"/>
<feColorMatrix in="SourceAlpha" type="matrix" values="0 0 0 0 0 0 0 0 0 0 0 0 0 0 0 0 0 0 127 0" result="hardAlpha"/>
<feOffset dy="4"/>
<feGaussianBlur stdDeviation="2"/>
<feComposite in2="hardAlpha" operator="out"/>
<feColorMatrix type="matrix" values="0 0 0 0 0 0 0 0 0 0 0 0 0 0 0 0 0 0 0.25 0"/>
<feBlend mode="normal" in2="BackgroundImageFix" result="effect1_dropShadow_258_331"/>
<feBlend mode="normal" in="SourceGraphic" in2="effect1_dropShadow_258_331" result="shape"/>
</filter>
</defs>
</svg>
