<svg width="77" height="135" viewBox="0 0 77 135" fill="none" xmlns="http://www.w3.org/2000/svg">
<g filter="url(#filter0_d_258_331)">
<path d="M13.3075 66H69.3075V95C69.3075 109.359 57.6669 121 43.3075 121H39.3075C24.9481 121 13.3075 109.359 13.3075 95V66Z" fill="#D9D9D9"/>
</g>
<path d="M50.3075 73H34.3075L40.3075 14.6633L41.3075 0H43.2855L44.8075 14.6633L50.3075 73Z" fill="#D9D9D9"/>
<rect x="33.3075" y="114" width="16" height="21" fill="#D9D9D9"/>
<g filter="url(#filter1_d_258_331)">
<path d="M28.4837 98.57C28.1637 98.57 27.8737 98.48 27.6137 98.3C27.3537 98.13 27.1487 97.905 26.9987 97.625C26.8487 97.335 26.7737 97.025 26.7737 96.695C26.7737 96.075 26.9087 95.47 27.1787 94.88C27.4587 94.29 27.8237 93.73 28.2737 93.2C28.7237 92.67 29.2137 92.185 29.7437 91.745C30.2837 91.295 30.8187 90.91 31.3487 90.59C31.8887 90.27 32.3787 90.02 32.8187 89.84C33.2687 89.66 33.6187 89.57 33.8687 89.57C34.1587 89.57 34.3937 89.635 34.5737 89.765C34.7637 89.885 34.8587 90.075 34.8587 90.335C34.8587 90.415 34.8387 90.48 34.7987 90.53C34.9287 90.56 35.0337 90.635 35.1137 90.755C35.1937 90.875 35.2337 91.055 35.2337 91.295C35.2337 91.395 35.2087 91.655 35.1587 92.075C35.1087 92.495 35.0537 93.005 34.9937 93.605C34.9437 94.205 34.9187 94.83 34.9187 95.48C34.9187 95.58 34.9337 95.67 34.9637 95.75C34.9937 95.82 35.0587 95.855 35.1587 95.855C35.5587 95.855 35.9637 95.775 36.3737 95.615C36.7937 95.445 37.1987 95.24 37.5887 95C37.9887 94.75 38.3487 94.505 38.6687 94.265C38.9987 94.015 39.2737 93.81 39.4937 93.65C39.7237 93.48 39.8737 93.395 39.9437 93.395C40.2837 93.395 40.4537 93.565 40.4537 93.905C40.4537 93.995 40.3437 94.185 40.1237 94.475C39.9137 94.755 39.6237 95.08 39.2537 95.45C38.8837 95.81 38.4687 96.17 38.0087 96.53C37.5587 96.88 37.0887 97.17 36.5987 97.4C36.1187 97.63 35.6537 97.745 35.2037 97.745C34.6537 97.745 34.2337 97.615 33.9437 97.355C33.6637 97.095 33.4637 96.745 33.3437 96.305C33.2337 95.855 33.1737 95.35 33.1637 94.79C32.6537 95.52 32.1237 96.17 31.5737 96.74C31.0337 97.3 30.4987 97.745 29.9687 98.075C29.4387 98.405 28.9437 98.57 28.4837 98.57ZM33.7937 91.055C32.8137 91.525 31.9337 92.065 31.1537 92.675C30.3737 93.275 29.7537 93.905 29.2937 94.565C28.8437 95.225 28.6187 95.86 28.6187 96.47C28.6187 96.64 28.6987 96.725 28.8587 96.725C29.0487 96.725 29.2987 96.615 29.6087 96.395C29.9287 96.175 30.2737 95.885 30.6437 95.525C31.0137 95.155 31.3837 94.745 31.7537 94.295C32.1237 93.835 32.4687 93.365 32.7887 92.885C33.1087 92.405 33.3637 91.945 33.5537 91.505C33.6237 91.345 33.7037 91.195 33.7937 91.055ZM40.6392 98.765C40.2092 98.765 39.9042 98.705 39.7242 98.585C39.5542 98.465 39.4692 98.29 39.4692 98.06C39.4692 97.86 39.5392 97.69 39.6792 97.55C39.8192 97.4 40.1292 97.25 40.6092 97.1C41.1692 96.93 41.6992 96.735 42.1992 96.515C42.7092 96.285 43.1242 96.035 43.4442 95.765C43.7742 95.495 43.9392 95.21 43.9392 94.91C43.9392 94.71 43.8692 94.565 43.7292 94.475C43.5992 94.385 43.4442 94.34 43.2642 94.34C43.1142 94.34 42.8942 94.365 42.6042 94.415C42.3242 94.455 42.0142 94.51 41.6742 94.58C41.3342 94.64 41.0042 94.695 40.6842 94.745C40.3742 94.785 40.1092 94.805 39.8892 94.805C39.3692 94.805 38.9842 94.69 38.7342 94.46C38.4842 94.22 38.3592 93.915 38.3592 93.545C38.3592 93.345 38.4642 93.07 38.6742 92.72C38.8842 92.37 39.1642 91.985 39.5142 91.565C39.8642 91.145 40.2542 90.725 40.6842 90.305C41.1142 89.885 41.5492 89.5 41.9892 89.15C42.4392 88.79 42.8642 88.505 43.2642 88.295C43.6642 88.075 44.0042 87.965 44.2842 87.965C44.6042 87.965 44.8592 88.065 45.0492 88.265C45.2492 88.465 45.3492 88.735 45.3492 89.075C45.3492 89.235 45.3342 89.41 45.3042 89.6C45.2742 89.78 45.1992 89.945 45.0792 90.095C44.9592 90.235 44.7742 90.335 44.5242 90.395C44.2742 90.455 43.9342 90.445 43.5042 90.365C43.1642 90.615 42.8092 90.89 42.4392 91.19C42.0792 91.48 41.7392 91.785 41.4192 92.105C41.0992 92.415 40.8342 92.72 40.6242 93.02C40.9942 92.9 41.4142 92.805 41.8842 92.735C42.3542 92.655 42.8292 92.615 43.3092 92.615C43.8892 92.615 44.3592 92.72 44.7192 92.93C45.0892 93.13 45.3592 93.4 45.5292 93.74C45.7092 94.08 45.7992 94.455 45.7992 94.865C45.7992 95.325 45.6492 95.785 45.3492 96.245C45.0492 96.705 44.6492 97.125 44.1492 97.505C43.6492 97.885 43.0942 98.19 42.4842 98.42C41.8742 98.65 41.2592 98.765 40.6392 98.765ZM57.9469 90.44C57.9469 90.56 57.9069 90.665 57.8269 90.755C57.7469 90.845 57.6469 90.915 57.5269 90.965C57.3569 91.035 57.0619 91.125 56.6419 91.235C56.2219 91.345 55.7119 91.47 55.1119 91.61C54.5219 91.75 53.8869 91.895 53.2069 92.045C52.5269 92.185 51.8469 92.32 51.1669 92.45C50.9069 93.41 50.6419 94.4 50.3719 95.42C50.1019 96.43 49.8319 97.425 49.5619 98.405C49.4619 98.755 49.3419 99.02 49.2019 99.2C49.0619 99.39 48.8219 99.485 48.4819 99.485C48.1119 99.485 47.8619 99.365 47.7319 99.125C47.6119 98.895 47.5969 98.58 47.6869 98.18C47.9469 97.09 48.1869 96.075 48.4069 95.135C48.6369 94.195 48.8219 93.435 48.9619 92.855C48.3619 92.955 47.8369 93.035 47.3869 93.095C46.9369 93.145 46.6169 93.165 46.4269 93.155C46.2169 93.135 46.0419 93.05 45.9019 92.9C45.7619 92.75 45.6969 92.565 45.7069 92.345C45.7269 92.145 45.8169 91.975 45.9769 91.835C46.1369 91.685 46.3269 91.595 46.5469 91.565C46.8569 91.535 47.2569 91.49 47.7469 91.43C48.2369 91.37 48.7769 91.3 49.3669 91.22C49.4969 90.71 49.6469 90.185 49.8169 89.645C49.9869 89.095 50.1619 88.57 50.3419 88.07C50.5319 87.56 50.7119 87.115 50.8819 86.735C51.0519 86.355 51.2069 86.08 51.3469 85.91C51.4569 85.78 51.5919 85.68 51.7519 85.61C51.9219 85.54 52.0869 85.505 52.2469 85.505C52.4569 85.505 52.6269 85.58 52.7569 85.73C52.8869 85.88 52.9519 86.055 52.9519 86.255C52.9519 86.335 52.9469 86.42 52.9369 86.51C52.9269 86.59 52.9069 86.67 52.8769 86.75C52.6869 87.25 52.4819 87.855 52.2619 88.565C52.0519 89.275 51.8319 90.055 51.6019 90.905C52.3519 90.795 53.0869 90.685 53.8069 90.575C54.5369 90.455 55.1969 90.345 55.7869 90.245C56.3869 90.135 56.8669 90.04 57.2269 89.96C57.4269 89.89 57.5969 89.905 57.7369 90.005C57.8769 90.095 57.9469 90.24 57.9469 90.44ZM56.3158 98.57C55.9958 98.57 55.7058 98.48 55.4458 98.3C55.1858 98.13 54.9808 97.905 54.8308 97.625C54.6808 97.335 54.6058 97.025 54.6058 96.695C54.6058 96.075 54.7408 95.47 55.0108 94.88C55.2908 94.29 55.6558 93.73 56.1058 93.2C56.5558 92.67 57.0458 92.185 57.5758 91.745C58.1158 91.295 58.6508 90.91 59.1808 90.59C59.7208 90.27 60.2108 90.02 60.6508 89.84C61.1008 89.66 61.4508 89.57 61.7008 89.57C61.9908 89.57 62.2258 89.635 62.4058 89.765C62.5958 89.885 62.6908 90.075 62.6908 90.335C62.6908 90.415 62.6708 90.48 62.6308 90.53C62.7608 90.56 62.8658 90.635 62.9458 90.755C63.0258 90.875 63.0658 91.055 63.0658 91.295C63.0658 91.395 63.0408 91.655 62.9908 92.075C62.9408 92.495 62.8858 93.005 62.8258 93.605C62.7758 94.205 62.7508 94.83 62.7508 95.48C62.7508 95.58 62.7658 95.67 62.7958 95.75C62.8258 95.82 62.8908 95.855 62.9908 95.855C63.3908 95.855 63.7958 95.775 64.2058 95.615C64.6258 95.445 65.0308 95.24 65.4208 95C65.8208 94.75 66.1808 94.505 66.5008 94.265C66.8308 94.015 67.1058 93.81 67.3258 93.65C67.5558 93.48 67.7058 93.395 67.7758 93.395C68.1158 93.395 68.2858 93.565 68.2858 93.905C68.2858 93.995 68.1758 94.185 67.9558 94.475C67.7458 94.755 67.4558 95.08 67.0858 95.45C66.7158 95.81 66.3008 96.17 65.8408 96.53C65.3908 96.88 64.9208 97.17 64.4308 97.4C63.9508 97.63 63.4858 97.745 63.0358 97.745C62.4858 97.745 62.0658 97.615 61.7758 97.355C61.4958 97.095 61.2958 96.745 61.1758 96.305C61.0658 95.855 61.0058 95.35 60.9958 94.79C60.4858 95.52 59.9558 96.17 59.4058 96.74C58.8658 97.3 58.3308 97.745 57.8008 98.075C57.2708 98.405 56.7758 98.57 56.3158 98.57ZM61.6258 91.055C60.6458 91.525 59.7658 92.065 58.9858 92.675C58.2058 93.275 57.5858 93.905 57.1258 94.565C56.6758 95.225 56.4508 95.86 56.4508 96.47C56.4508 96.64 56.5308 96.725 56.6908 96.725C56.8808 96.725 57.1308 96.615 57.4408 96.395C57.7608 96.175 58.1058 95.885 58.4758 95.525C58.8458 95.155 59.2158 94.745 59.5858 94.295C59.9558 93.835 60.3008 93.365 60.6208 92.885C60.9408 92.405 61.1958 91.945 61.3858 91.505C61.4558 91.345 61.5358 91.195 61.6258 91.055Z" fill="#FFF3C7"/>
</g>
<path d="M56.2368 37.9037C54.7203 37.9037 53.8338 37.9772 48.702 37.9495C43.921 37.9237 34.7243 37.5702 29.8873 37.4216C25.0504 37.273 24.853 37.2625 24.1127 37.5287C22.067 38.2642 19.9665 39.3818 18.6375 40.1596C17.0797 41.0712 15.0791 41.552 12.9881 43.6352C10.5292 46.0849 10.3066 48.6644 10.2645 50.9699C10.2423 52.1878 11.9565 52.7087 13.429 53.2019C15.4138 53.8667 16.4713 53.7911 17.96 54.1814C21.2967 55.0564 23.0019 54.7128 24.2087 54.5039C25.6383 54.2565 26.7446 53.8595 29.7163 53.4857C32.4413 53.1428 37.6266 52.4093 44.189 51.7875C50.7514 51.1656 58.5311 50.6573 62.8027 50.4177C67.5981 50.1486 68.7121 50.4007 69.6956 50.6538C71.039 50.9996 72.7399 53.036 73.5896 54.3088C74.1184 55.1009 73.6128 56.394 73.1041 57.3625C72.4422 58.6227 71.5059 59.0001 69.022 59.9841C67.8198 60.4604 65.8474 60.892 62.0089 61.2449C58.1705 61.5978 52.4913 61.761 47.168 61.5376C41.8447 61.3143 37.0492 60.6994 33.8724 60.397C30.6956 60.0947 29.2827 60.1235 26.4734 60.7287C23.664 61.334 19.501 62.5148 17.0075 63.1861C14.5139 63.8574 13.8159 63.9834 13.5194 64.1223C13.2229 64.2611 13.3491 64.4091 13.4955 64.5907" stroke="#FFF3C7" stroke-width="5" stroke-linecap="round"/>
<path d="M19.8075 62.5C19.7951 62.5 15.3075 63 13.3075 64.3993C11.3075 65.7987 11.5121 65.6645 9.05844 67.9477C7.81323 69.1064 7.40956 70.475 6.61043 71.5408C5.81129 72.6067 5.35665 73.4002 4.85224 74.6348C4.34784 75.8694 3.80744 77.521 3.39422 79.1568C2.59147 82.3344 2.43347 84.3596 2.52005 85.0934C2.73281 86.8967 4.60521 88.1116 5.71378 88.7849C6.73113 89.4028 8.17375 89.7192 10.5217 89.9429C12.1345 90.0966 14.6247 90.024 16.1665 89.9706C19.8968 89.8414 22.7914 88.8624 23.7888 88.6051C25.4666 88.1725 28.1955 88.118 29.8398 87.7247C31.7625 87.2649 32.238 86.2299 32.7181 85.3635C33.4942 83.963 33.2506 81.8218 33.0342 80.0268C32.7748 77.8745 30.6524 76.4327 29.8012 75.841C28.7901 75.1381 26.6597 75.372 25.5175 75.661C24.4453 75.9323 23.9499 77.0885 23.4373 78.1766C23.2564 78.5606 23.1475 79.138 23.0494 81.3635C22.9513 83.5891 22.9134 87.464 22.9299 89.6505C22.9563 93.1441 23.038 94.4656 22.9988 96.5446C22.9854 98.3767 22.9854 101.787 22.9934 103.663C23.0014 105.54 23.0173 105.779 23.0545 106.093" stroke="#FFF3C7" stroke-width="5" stroke-linecap="round"/>
<path d="M69.3075 67.5L50.3075 73L57.8075 14.6633L59.0575 0H61.5301L63.4325 14.6633L69.3075 67.5Z" fill="#D9D9D9"/>
<path d="M33.3075 73H13.3075L20.8075 14.6633L22.0575 0H24.5301L26.4325 14.6633L33.3075 73Z" fill="#D9D9D9"/>
<path d="M31.068 37.4275C25.8075 37.4275 19.8075 38.9275 15.3075 42" stroke="#FFF3C7" stroke-width="5" stroke-linecap="round"/>
<path d="M33.3075 60.5C28.047 60.5 18.3075 60.9275 13.8075 64" stroke="#FFF3C7" stroke-width="5" stroke-linecap="round"/>
<path d="M68.8075 60C64.8075 61.5 53.8075 61 48.3075 61.5" stroke="#FFF3C7" stroke-width="5" stroke-linecap="round"/>
<defs>
<filter id="filter0_d_258_331" x="9.3075" y="66" width="64" height="63" filterUnits="userSpaceOnUse" color-interpolation-filters="sRGB">
<feFlood flood-opacity="0" result="BackgroundImageFix"/>
<feColorMatrix in="SourceAlpha" type="matrix" values="0 0 0 0 0 0 0 0 0 0 0 0 0 0 0 0 0 0 127 0" result="hardAlpha"/>
<feOffset dy="4"/>
<feGaussianBlur stdDeviation="2"/>
<feComposite in2="hardAlpha" operator="out"/>
<feColorMatrix type="matrix" values="0 0 0 0 0 0 0 0 0 0 0 0 0 0 0 0 0 0 0.25 0"/>
<feBlend mode="normal" in2="BackgroundImageFix" result="effect1_dropShadow_258_331"/>
<feBlend mode="normal" in="SourceGraphic" in2="effect1_dropShadow_258_331" result="shape"/>
</filter>
<filter id="filter1_d_258_331" x="22.7737" y="85.505" width="49.5121" height="21.98" filterUnits="userSpaceOnUse" color-interpolation-filters="sRGB">
<feFlood flood-opacity="0" result="BackgroundImageFix"/>
<feColorMatrix in="SourceAlpha" type="matrix" values="0 0 0 0 0 0 0 0 0 0 0 0 0 0 0 0 0 0 127 0" result="hardAlpha"/>
<feOffset dy="4"/>
<feGaussianBlur stdDeviation="2"/>
<feComposite in2="hardAlpha" operator="out"/>
<feColorMatrix type="matrix" values="0 0 0 0 0 0 0 0 0 0 0 0 0 0 0 0 0 0 0.25 0"/>
<feBlend mode="normal" in2="BackgroundImageFix" result="effect1_dropShadow_258_331"/>
<feBlend mode="normal" in="SourceGraphic" in2="effect1_dropShadow_258_331" result="shape"/>
</filter>
</defs>
</svg>
